<svg width="345" height="64" viewBox="0 0 345 64" fill="none" xmlns="http://www.w3.org/2000/svg">
<path d="M19.8075 0.0482178C15.7586 0.0482178 12.3122 3.0706 11.4205 7.4055L0.0208325 62.9043C-0.0394193 63.1933 0.0328827 63.4823 0.213638 63.711C0.370293 63.9037 0.575148 64 0.792055 64H14.6982C15.4212 64 16.0358 63.4582 16.1924 62.6755L20.2172 43.0841C20.3498 42.4339 20.868 41.9884 21.4825 41.9884H80.1919C80.9149 41.9884 81.5295 41.4465 81.6861 40.6638L83.9275 29.7182C83.9877 29.4292 83.9154 29.1402 83.7347 28.9114C83.578 28.7308 83.3732 28.6224 83.1563 28.6224H24.8325C24.4469 28.6224 24.0854 28.4418 23.8323 28.1287C23.5552 27.7795 23.4347 27.3099 23.5311 26.8644L25.9291 15.1842C26.146 14.1487 26.9775 13.4142 27.9656 13.4142H96.6527C97.3757 13.4142 97.9903 12.8723 98.1469 12.0896L100.4 1.14398C100.461 0.867032 100.388 0.565998 100.208 0.349253C100.051 0.15659 99.846 0.0602571 99.6291 0.0602571H19.8075V0.0482178Z" fill="#0D0C0C"/>
<path d="M122.031 0.0482178C121.308 0.0482178 120.693 0.590079 120.536 1.37277L107.908 62.8922C107.847 63.1812 107.92 63.4702 108.101 63.699C108.257 63.8917 108.462 63.988 108.679 63.988H122.585C123.308 63.988 123.923 63.4461 124.079 62.6635L136.708 1.14398C136.768 0.867032 136.696 0.565998 136.515 0.349253C136.359 0.15659 136.154 0.0602571 135.937 0.0602571H122.031V0.0482178Z" fill="#0D0C0C"/>
<path d="M263.876 0.0482178C259.827 0.0482178 256.38 3.0706 255.488 7.4055L246.101 53.1146C245.523 55.8962 246.234 58.8463 247.993 61.0138C249.536 62.9043 251.741 63.988 254.03 63.988H331.358C332.285 63.988 332.96 63.4823 333.129 62.6635L335.37 51.7178C335.431 51.4288 335.358 51.1398 335.178 50.9231C335.021 50.7304 334.816 50.6341 334.599 50.6341H264.406C264.02 50.6341 263.659 50.4535 263.406 50.1404C263.128 49.7912 263.008 49.3216 263.104 48.8761L265.069 39.3152C265.285 38.2796 266.117 37.5451 267.105 37.5451H329.815C334.961 37.5451 339.552 33.9688 340.504 29.2365L344.818 8.33269C345.264 6.16524 344.89 4.33495 343.709 2.88998C342.227 1.08377 339.552 0.0482178 336.37 0.0482178H263.876ZM270.057 14.9795C270.262 13.9801 271.142 13.2697 272.154 13.2697H326.863C327.248 13.2697 327.61 13.4503 327.863 13.7634C328.14 14.1126 328.261 14.5822 328.164 15.0277L326.369 23.7457C326.152 24.8174 325.2 25.588 324.103 25.588H269.551C269.166 25.588 268.804 25.4074 268.551 25.0943C268.274 24.7451 268.153 24.2755 268.25 23.83L270.057 14.9795Z" fill="#0D0C0C"/>
<path d="M157.278 0C157.049 0 156.832 0.10837 156.676 0.288991C156.483 0.505736 156.398 0.806774 156.447 1.11985L164.665 57.3652C165.207 61.1101 168.22 63.9398 171.654 63.9398H197.526C201.431 63.9398 204.961 61.7723 206.986 58.1479L238.871 0.879021C238.979 0.686359 238.967 0.457574 238.859 0.264912C238.763 0.0963326 238.618 0.0120394 238.449 0.0120394H221.856C221.314 0.0120394 220.832 0.313077 220.554 0.818815L193.188 49.9116C192.959 50.333 192.525 50.5859 192.067 50.5859H181.162C180.511 50.5859 179.945 50.0561 179.836 49.3697L172.727 0.758609C172.666 0.325119 172.329 0.0120394 171.943 0.0120394H157.278V0Z" fill="#0D0C0C"/>
</svg>
