<svg width="345" height="64" viewBox="0 0 345 64" fill="none" xmlns="http://www.w3.org/2000/svg">
<g clip-path="url(#clip0_8_908)">
<path d="M19.8075 0.0483398C15.7586 0.0483398 12.3122 3.07072 11.4205 7.40562L0.0208325 62.9044C-0.0394193 63.1934 0.0328827 63.4824 0.213638 63.7111C0.370293 63.9038 0.575148 64.0001 0.792055 64.0001H14.6982C15.4212 64.0001 16.0358 63.4583 16.1924 62.6756L20.2172 43.0842C20.3498 42.434 20.868 41.9885 21.4825 41.9885H80.1919C80.9149 41.9885 81.5295 41.4466 81.6861 40.6639L83.9275 29.7183C83.9877 29.4293 83.9154 29.1403 83.7347 28.9115C83.578 28.7309 83.3732 28.6225 83.1563 28.6225H24.8325C24.4469 28.6225 24.0854 28.4419 23.8323 28.1288C23.5552 27.7796 23.4347 27.31 23.5311 26.8645L25.9291 15.1843C26.146 14.1488 26.9775 13.4143 27.9656 13.4143H96.6527C97.3757 13.4143 97.9903 12.8724 98.1469 12.0897L100.4 1.1441C100.461 0.867154 100.388 0.56612 100.208 0.349375C100.051 0.156712 99.846 0.0603791 99.6291 0.0603791H19.8075V0.0483398Z" fill="white"/>
<path d="M122.031 0.0483398C121.308 0.0483398 120.693 0.590201 120.536 1.37289L107.908 62.8923C107.847 63.1813 107.92 63.4703 108.101 63.6991C108.257 63.8918 108.462 63.9881 108.679 63.9881H122.585C123.308 63.9881 123.923 63.4462 124.079 62.6636L136.708 1.1441C136.768 0.867154 136.696 0.56612 136.515 0.349375C136.359 0.156712 136.154 0.0603791 135.937 0.0603791H122.031V0.0483398Z" fill="white"/>
<path d="M263.876 0.0483398C259.827 0.0483398 256.38 3.07072 255.488 7.40562L246.101 53.1147C245.523 55.8963 246.234 58.8464 247.993 61.0139C249.536 62.9044 251.741 63.9881 254.03 63.9881H331.358C332.285 63.9881 332.96 63.4824 333.129 62.6636L335.37 51.7179C335.431 51.4289 335.358 51.1399 335.178 50.9232C335.021 50.7305 334.816 50.6342 334.599 50.6342H264.406C264.02 50.6342 263.659 50.4536 263.406 50.1405C263.128 49.7913 263.008 49.3217 263.104 48.8762L265.069 39.3153C265.285 38.2797 266.118 37.5452 267.106 37.5452H329.815C334.961 37.5452 339.552 33.9689 340.504 29.2366L344.818 8.33281C345.264 6.16536 344.891 4.33507 343.71 2.8901C342.228 1.08389 339.552 0.0483398 336.37 0.0483398H263.876ZM270.057 14.9796C270.262 13.9802 271.142 13.2698 272.154 13.2698H326.863C327.248 13.2698 327.61 13.4504 327.863 13.7635C328.14 14.1127 328.261 14.5823 328.164 15.0278L326.369 23.7458C326.152 24.8175 325.2 25.5881 324.103 25.5881H269.551C269.166 25.5881 268.804 25.4075 268.551 25.0944C268.274 24.7452 268.153 24.2756 268.25 23.8301L270.057 14.9796Z" fill="white"/>
<path d="M157.278 0C157.049 0 156.832 0.10837 156.676 0.288991C156.483 0.505736 156.398 0.806774 156.447 1.11985L164.665 57.3652C165.207 61.1101 168.22 63.9398 171.654 63.9398H197.526C201.431 63.9398 204.961 61.7723 206.986 58.1479L238.871 0.879021C238.979 0.686359 238.967 0.457574 238.859 0.264912C238.763 0.0963326 238.618 0.0120394 238.449 0.0120394H221.856C221.314 0.0120394 220.832 0.313077 220.554 0.818815L193.188 49.9116C192.959 50.333 192.525 50.5859 192.067 50.5859H181.162C180.511 50.5859 179.945 50.0561 179.836 49.3697L172.727 0.758609C172.666 0.325119 172.329 0.0120394 171.943 0.0120394H157.278V0Z" fill="white"/>
</g>
<defs>
<clipPath id="clip0_8_908">
<rect width="345" height="64" fill="white"/>
</clipPath>
</defs>
</svg>
